<?xml version="1.0" encoding="UTF-8"?>
<svg version="1.1" xmlns="http://www.w3.org/2000/svg" width="256" height="224">
<path d="M0 0 C2.62971088 0.97416787 2.62971088 0.97416787 5.71875 1.296875 C8.94587883 1.94053731 9.44512623 2.5105239 11.578125 4.8671875 C13.11375368 5.8486812 14.6517598 6.82704135 16.21044922 7.77148438 C24.23099135 12.63978206 30.95150264 18.25023904 37.578125 24.8671875 C38.30644531 25.58390625 39.03476563 26.300625 39.78515625 27.0390625 C44.73841867 32.23656862 54.578125 43.34022122 54.578125 50.8671875 C50.65667402 52.82791299 45.944435 52.47025023 41.578125 52.8671875 C64.843125 53.3621875 64.843125 53.3621875 88.578125 53.8671875 C88.578125 54.5271875 88.578125 55.1871875 88.578125 55.8671875 C79.338125 57.1871875 70.098125 58.5071875 60.578125 59.8671875 C60.578125 64.95905974 61.77942191 69.51169032 62.921875 74.45703125 C63.48873712 77.40268975 63.63148692 79.89194284 63.578125 82.8671875 C62.92746063 83.02259506 62.27679626 83.17800262 61.60641479 83.33811951 C54.81457264 84.96769498 48.03629819 86.64660879 41.26367188 88.35424805 C38.73717231 88.98441609 36.20751986 89.60208418 33.67480469 90.20678711 C30.02671672 91.0801216 26.39246924 91.9983356 22.7578125 92.92578125 C21.62946991 93.18556259 20.50112732 93.44534393 19.33859253 93.71299744 C13.68637411 95.20305164 10.28504957 96.4423158 6.94921875 101.39453125 C6.12870801 102.86904053 5.33547631 104.3592636 4.578125 105.8671875 C3.87944098 107.03938428 3.17437161 108.20781544 2.4609375 109.37109375 C1.59082031 110.88509766 1.59082031 110.88509766 0.703125 112.4296875 C0.10757813 113.46222656 -0.48796875 114.49476563 -1.1015625 115.55859375 C-1.53726563 116.32042969 -1.97296875 117.08226562 -2.421875 117.8671875 C-5.04639117 115.24267133 -5.0051618 113.3794047 -5.546875 109.7421875 C-5.71445313 108.64648438 -5.88203125 107.55078125 -6.0546875 106.421875 C-6.17585937 105.57882813 -6.29703125 104.73578125 -6.421875 103.8671875 C-8.731875 105.5171875 -11.041875 107.1671875 -13.421875 108.8671875 C-12.90625 109.7334375 -12.390625 110.5996875 -11.859375 111.4921875 C-10.22052733 115.33991681 -10.21928874 116.91583265 -11.421875 120.8671875 C-12.609375 123.1796875 -12.609375 123.1796875 -14.421875 124.8671875 C-17.609375 125.6171875 -17.609375 125.6171875 -20.421875 125.8671875 C-20.091875 124.8771875 -19.761875 123.8871875 -19.421875 122.8671875 C-18.761875 122.5371875 -18.101875 122.2071875 -17.421875 121.8671875 C-17.17171627 118.45075991 -17.17171627 118.45075991 -17.421875 114.8671875 C-20.17816437 112.54433521 -20.17816437 112.54433521 -22.921875 113.2421875 C-23.746875 113.4484375 -24.571875 113.6546875 -25.421875 113.8671875 C-26.411875 113.8671875 -27.401875 113.8671875 -28.421875 113.8671875 C-23.9634912 107.20523469 -17.54490247 104.21444818 -10.609375 100.4921875 C-9.42710895 99.84619539 -8.24546182 99.19906921 -7.06445312 98.55078125 C-4.18947225 96.97834273 -1.30874076 95.41766504 1.578125 93.8671875 C-16.84683302 99.07745903 -16.84683302 99.07745903 -31.1875 111.19140625 C-32.72002075 114.51348446 -32.54545946 116.57207972 -32.109375 120.1796875 C-31.98949219 121.24832031 -31.86960937 122.31695312 -31.74609375 123.41796875 C-31.63910156 124.22621094 -31.53210938 125.03445312 -31.421875 125.8671875 C-32.741875 126.1971875 -34.061875 126.5271875 -35.421875 126.8671875 C-36.081875 125.8771875 -36.741875 124.8871875 -37.421875 123.8671875 C-37.091875 123.2071875 -36.761875 122.5471875 -36.421875 121.8671875 C-35.68849394 117.30908495 -35.64876888 113.14982506 -38.421875 109.3046875 C-45.77247979 101.77865062 -57.61231783 97.92759837 -67.421875 94.8671875 C-66.7105542 95.27557861 -65.9992334 95.68396973 -65.26635742 96.10473633 C-62.04451718 97.95815631 -58.82692276 99.81882654 -55.609375 101.6796875 C-54.48982422 102.32228516 -53.37027344 102.96488281 -52.21679688 103.62695312 C-51.14365234 104.24892578 -50.07050781 104.87089844 -48.96484375 105.51171875 C-47.97508545 106.08253174 -46.98532715 106.65334473 -45.96557617 107.24145508 C-43.75419656 108.65479386 -42.03169834 109.80491011 -40.421875 111.8671875 C-40.421875 112.8571875 -40.421875 113.8471875 -40.421875 114.8671875 C-41.081875 114.8671875 -41.741875 114.8671875 -42.421875 114.8671875 C-42.421875 114.2071875 -42.421875 113.5471875 -42.421875 112.8671875 C-45.061875 113.1971875 -47.701875 113.5271875 -50.421875 113.8671875 C-51.27838153 116.66763796 -51.27838153 116.66763796 -51.421875 119.8671875 C-49.56755413 122.13862824 -49.56755413 122.13862824 -47.421875 123.8671875 C-47.421875 124.5271875 -47.421875 125.1871875 -47.421875 125.8671875 C-51.1871108 125.61046688 -52.98027011 125.27392884 -55.796875 122.6796875 C-57.72046795 119.35039201 -57.8954997 117.6561851 -57.421875 113.8671875 C-56.421875 110.9921875 -56.421875 110.9921875 -55.421875 108.8671875 C-57.071875 107.5471875 -58.721875 106.2271875 -60.421875 104.8671875 C-62.62723679 108.8943699 -63.87847708 112.30264499 -64.421875 116.8671875 C-67.421875 115.8671875 -67.421875 115.8671875 -68.34077454 114.13945007 C-68.6128624 113.40080215 -68.88495026 112.66215424 -69.1652832 111.90112305 C-72.57424512 103.8749501 -75.89732302 97.42544461 -84.28662109 93.99072266 C-91.27220228 91.6933838 -98.41811241 90.17599584 -105.609375 88.6796875 C-108.114285 88.09888814 -110.61757409 87.51105082 -113.11914062 86.91601562 C-119.20373033 85.48468483 -125.30261347 84.14164622 -131.421875 82.8671875 C-131.86024925 75.26870045 -130.42576165 70.8827341 -128.421875 62.8671875 C-116.871875 62.2071875 -105.321875 61.5471875 -93.421875 60.8671875 C-126.091875 60.3721875 -126.091875 60.3721875 -159.421875 59.8671875 C-159.421875 59.2071875 -159.421875 58.5471875 -159.421875 57.8671875 C-155.08937263 57.35980973 -150.75575873 56.86261602 -146.421875 56.3671875 C-145.20113281 56.22410156 -143.98039062 56.08101562 -142.72265625 55.93359375 C-136.5812071 55.23645628 -130.60308683 54.68175115 -124.421875 54.8671875 C-124.15375 53.8153125 -123.885625 52.7634375 -123.609375 51.6796875 C-122.55026192 48.27937709 -121.29652485 45.849585 -119.421875 42.8671875 C-119.421875 42.2071875 -119.421875 41.5471875 -119.421875 40.8671875 C-123.051875 40.2071875 -126.681875 39.5471875 -130.421875 38.8671875 C-130.751875 37.8771875 -131.081875 36.8871875 -131.421875 35.8671875 C-118.881875 35.8671875 -106.341875 35.8671875 -93.421875 35.8671875 C-99.361875 35.2071875 -105.301875 34.5471875 -111.421875 33.8671875 C-108.59678518 22.56682823 -94.89634737 13.69416813 -85.421875 7.8671875 C-59.23192255 -6.9495356 -28.36565794 -10.69932712 0 0 Z M-57.421875 13.8671875 C-60.93760021 18.40062264 -62.56716623 21.84209255 -62.484375 27.5546875 C-62.47535156 28.36292969 -62.46632813 29.17117187 -62.45703125 30.00390625 C-62.44542969 30.61878906 -62.43382813 31.23367187 -62.421875 31.8671875 C-62.091875 31.8671875 -61.761875 31.8671875 -61.421875 31.8671875 C-61.25171875 31.05894531 -61.0815625 30.25070313 -60.90625 29.41796875 C-58.35815374 18.18194855 -58.35815374 18.18194855 -54.421875 14.8671875 C-51.48922679 13.33997796 -48.50899948 12.04794665 -45.421875 10.8671875 C-45.421875 10.5371875 -45.421875 10.2071875 -45.421875 9.8671875 C-50.21040527 9.28675959 -53.707947 10.98249758 -57.421875 13.8671875 Z M-61.421875 32.8671875 C-60.421875 34.8671875 -60.421875 34.8671875 -60.421875 34.8671875 Z M7.578125 39.8671875 C7.578125 41.5171875 7.578125 43.1671875 7.578125 44.8671875 C7.908125 44.8671875 8.238125 44.8671875 8.578125 44.8671875 C8.578125 43.2171875 8.578125 41.5671875 8.578125 39.8671875 C8.248125 39.8671875 7.918125 39.8671875 7.578125 39.8671875 Z " fill="#060606" transform="translate(162.421875,15.1328125)"/>
<path d="M0 0 C7.52346268 0.60009162 14.47399322 2.28140725 21.7421875 4.2734375 C22.94634308 4.59784821 24.15049866 4.92225891 25.3911438 5.25650024 C28.57416989 6.11532941 31.75557577 6.97984646 34.9362793 7.847229 C38.14500926 8.72073007 41.35581691 9.58648295 44.56640625 10.453125 C56.59132657 13.70232233 56.59132657 13.70232233 61.91668701 15.17034912 C63.98629895 15.72723562 66.06326178 16.25743604 68.14630127 16.76177979 C69.12814392 17.00490906 70.10998657 17.24803833 71.12158203 17.49853516 C71.98961456 17.70370758 72.85764709 17.90888 73.75198364 18.12026978 C78.26813558 19.8876036 79.85421158 23.89160023 82 28 C82.82105001 29.45175635 83.64701033 30.90074132 84.4765625 32.34765625 C89.69928008 41.52586292 94.2892272 50.47421128 97.5625 60.5625 C97.77068359 61.19607422 97.97886719 61.82964844 98.19335938 62.48242188 C98.79738872 64.32101904 99.39873816 66.16049595 100 68 C100.66531333 70.0004506 101.33148519 72.000617 102 74 C84.01773814 80.22914953 84.01773814 80.22914953 76.72265625 76.98828125 C76.15417969 76.66214844 75.58570312 76.33601563 75 76 C75 75.34 75 74.68 75 74 C74.34 74 73.68 74 73 74 C70.70351351 71.4385343 70 70.52032428 70 67 C68.87464844 66.76216797 68.87464844 66.76216797 67.7265625 66.51953125 C54.56588482 63.51942714 43.31450416 57.96854824 35.375 46.5625 C34 44 34 44 34 42 C35.98 42 37.96 42 40 42 C38.96101563 41.5153125 37.92203125 41.030625 36.8515625 40.53125 C19.27110427 32.15900008 6.9551988 21.78430586 0 3 C0 2.01 0 1.02 0 0 Z " fill="#0B0B0B" transform="translate(5,96)"/>
<path d="M0 0 C-3.92753588 15.29503809 -12.56285357 27.41627064 -26 36 C-30.56992978 38.52955625 -35.27070468 40.7867167 -40 43 C-38.02 43 -36.04 43 -34 43 C-36.21819912 50.88693019 -42.89903779 56.50001591 -49.61328125 60.68359375 C-56.62361959 64.55017971 -63.01933398 66.48511832 -71 67 C-71.04125 67.886875 -71.0825 68.77375 -71.125 69.6875 C-72.33141925 74.25465858 -74.20018998 75.28584999 -78 78 C-85.58191903 81.79095952 -95.5395833 77.37714558 -103 75 C-102.61328125 74.06800781 -102.2265625 73.13601562 -101.828125 72.17578125 C-101.30069574 70.88858853 -100.7747681 69.60077993 -100.25 68.3125 C-99.97196533 67.63058594 -99.69393066 66.94867188 -99.4074707 66.24609375 C-97.72563176 62.04369329 -96.35981352 57.87845468 -95.1875 53.5 C-93.02783379 46.15352038 -89.1783293 40.11716727 -85.08105469 33.72314453 C-83.08611255 30.54331129 -81.29562955 27.2402166 -79.484375 23.953125 C-76.10948582 19.51248135 -71.14332977 18.29730277 -65.9465332 16.9152832 C-65.25651215 16.72952728 -64.56649109 16.54377136 -63.8555603 16.35238647 C-61.58923127 15.7443416 -59.3201396 15.14741108 -57.05078125 14.55078125 C-55.47071946 14.1296905 -53.89082154 13.70798438 -52.31108093 13.28569031 C-49.00801977 12.40440148 -45.70367099 11.52818669 -42.39819336 10.65600586 C-38.15587769 9.5365569 -33.91601163 8.40815483 -29.67695332 7.27644062 C-25.63574647 6.19801652 -21.59328772 5.1243212 -17.55078125 4.05078125 C-16.77751307 3.84494226 -16.00424488 3.63910328 -15.20754433 3.42702675 C-13.02747732 2.8475602 -10.84654135 2.27149739 -8.6652832 1.6965332 C-7.42349808 1.36804886 -6.18171295 1.03956451 -4.90229797 0.7011261 C-2 0 -2 0 0 0 Z " fill="#0B0B0B" transform="translate(252,95)"/>
<path d="M0 0 C0.66 0 1.32 0 2 0 C2 0.66 2 1.32 2 2 C5.06462904 2.89385014 7.81181379 3.13472008 11 3.125 C11.845625 3.12757813 12.69125 3.13015625 13.5625 3.1328125 C15.84698944 3.00833711 17.80991574 2.63877457 20 2 C21.65 3.98 23.3 5.96 25 8 C25.763125 7.195625 26.52625 6.39125 27.3125 5.5625 C30 3 30 3 33 2 C33.66 2.33 34.32 2.66 35 3 C37.30410044 3.23604169 37.30410044 3.23604169 39.875 3.25 C40.73867187 3.27578125 41.60234375 3.3015625 42.4921875 3.328125 C45.46527407 2.93912302 46.71923125 1.87595698 49 0 C49.66 0 50.32 0 51 0 C49.13198257 17.58512961 41.15853742 32.65382901 27.43359375 43.890625 C26.96050781 44.25671875 26.48742187 44.6228125 26 45 C13.67675753 38.83837877 6.26714737 25.663944 2 13.0625 C0.52504776 8.52605149 -0.23318668 4.7730398 0 0 Z " fill="#0C0C0C" transform="translate(103,141)"/>
<path d="M0 0 C2.77677695 1.22963303 3.99792455 3.46736854 5.87890625 5.83203125 C8.05419915 7.8459986 10.2033767 9.53683172 12.87890625 10.83203125 C18.68634429 10.23639658 23.88505993 3.82587757 27.87890625 -0.16796875 C31.26531373 0.14929142 32.95323845 1.4800515 35.19140625 3.95703125 C37.30019888 6.62276143 37.85798399 7.67361985 38.31640625 11.14453125 C36.08953133 16.85694953 32.14499132 20.51746794 27.87890625 24.83203125 C26.83524084 25.94474323 25.79364701 27.05940112 24.75390625 28.17578125 C23.692722 29.29161737 22.630238 30.40621895 21.56640625 31.51953125 C21.06326904 32.0611792 20.56013184 32.60282715 20.04174805 33.16088867 C18.578125 34.65625 18.578125 34.65625 15.87890625 36.83203125 C11.34282751 36.36540912 8.93562788 33.22203895 5.94140625 30.08203125 C5.42900391 29.55609375 4.91660156 29.03015625 4.38867188 28.48828125 C3.37023059 27.44266427 2.35496261 26.39394633 1.34301758 25.34204102 C-0.03776367 23.91797365 -1.44584705 22.52052548 -2.85546875 21.125 C-6.24092644 17.69868334 -8.69809667 14.63938242 -9.80859375 9.89453125 C-8.8174549 5.47945821 -5.08079709 -0.40234673 0 0 Z " fill="#0F0F0F" transform="translate(114.12109375,179.16796875)"/>
<path d="M0 0 C0.66 0 1.32 0 2 0 C2.50354867 2.43681587 3.00296756 4.87435439 3.5 7.3125 C3.64308594 8.00279297 3.78617188 8.69308594 3.93359375 9.40429688 C4.52625044 12.32524773 5 15.01108122 5 18 C12.425 18.99 12.425 18.99 20 20 C20 20.66 20 21.32 20 22 C14.94997778 23.03590199 10.12583611 23.10251672 5 23 C4.86722656 24.13179687 4.73445313 25.26359375 4.59765625 26.4296875 C4.4194658 27.91148179 4.24106971 29.39325136 4.0625 30.875 C3.97548828 31.62136719 3.88847656 32.36773437 3.79882812 33.13671875 C3.11328125 38.7734375 3.11328125 38.7734375 2 41 C1.34 41 0.68 41 0 41 C-1.485 32.585 -1.485 32.585 -3 24 C-10.425 23.01 -10.425 23.01 -18 22 C-18 21.34 -18 20.68 -18 20 C-12.72 19.34 -7.44 18.68 -2 18 C-2 15.69 -2 13.38 -2 11 C-1.71862386 9.01278102 -1.3889372 7.03149458 -1 5.0625 C-0.814375 4.10472656 -0.62875 3.14695312 -0.4375 2.16015625 C-0.2209375 1.09087891 -0.2209375 1.09087891 0 0 Z " fill="#1E1E1E" transform="translate(219,15)"/>
<path d="M0 0 C-0.0625 2.1875 -0.0625 2.1875 -1 5 C-3.1717219 6.93157957 -5.52601047 8.48201687 -8 10 C-7.484375 10.86625 -6.96875 11.7325 -6.4375 12.625 C-4.79865233 16.47272931 -4.79741374 18.04864515 -6 22 C-7.1875 24.3125 -7.1875 24.3125 -9 26 C-12.1875 26.75 -12.1875 26.75 -15 27 C-14.67 26.01 -14.34 25.02 -14 24 C-13.34 23.67 -12.68 23.34 -12 23 C-11.74984127 19.58357241 -11.74984127 19.58357241 -12 16 C-14.75628937 13.67714771 -14.75628937 13.67714771 -17.5 14.375 C-18.325 14.58125 -19.15 14.7875 -20 15 C-20.99 15 -21.98 15 -23 15 C-19.21762564 9.87261629 -15.4036788 7.1002155 -9.8125 4.125 C-9.08869141 3.7228125 -8.36488281 3.320625 -7.61914062 2.90625 C-2.30584343 0 -2.30584343 0 0 0 Z " fill="#2C2C2C" transform="translate(157,114)"/>
<path d="M0 0 C4.28083414 1.57072431 8.18052713 3.67461819 12.125 5.9375 C12.74503906 6.28490234 13.36507812 6.63230469 14.00390625 6.99023438 C20.12055801 10.48264522 20.12055801 10.48264522 22 13 C22 13.99 22 14.98 22 16 C21.34 16 20.68 16 20 16 C20 15.34 20 14.68 20 14 C17.36 14.33 14.72 14.66 12 15 C11.14349347 17.80045046 11.14349347 17.80045046 11 21 C12.85432087 23.27144074 12.85432087 23.27144074 15 25 C15 25.66 15 26.32 15 27 C11.2347642 26.74327938 9.44160489 26.40674134 6.625 23.8125 C4.70140705 20.48320451 4.5263753 18.7889976 5 15 C6 12.125 6 12.125 7 10 C5.35 8.68 3.7 7.36 2 6 C1.01 6.495 1.01 6.495 0 7 C0 6.01 0 5.02 0 4 C0.99 4 1.98 4 3 4 C2.01 3.34 1.02 2.68 0 2 C0 1.34 0 0.68 0 0 Z " fill="#343434" transform="translate(100,114)"/>
<path d="M0 0 C0 0.33 0 0.66 0 1 C-1.98 1.33 -3.96 1.66 -6 2 C41.025 2.495 41.025 2.495 89 3 C89 3.33 89 3.66 89 4 C74.36366099 4.86097498 59.8255582 5.08107549 45.16796875 4.87890625 C43.06806549 4.85451645 40.96815577 4.83067789 38.86824036 4.80735779 C33.41863468 4.74539579 27.96914784 4.67609459 22.51965332 4.60510254 C16.92786944 4.53360997 11.33600324 4.46928236 5.74414062 4.40429688 C-5.17066344 4.27642266 -16.08535517 4.14077118 -27 4 C-27 3.34 -27 2.68 -27 2 C-17.96301675 0.8258212 -9.13338455 -0.28994872 0 0 Z " fill="#606060" transform="translate(30,71)"/>
<path d="M0 0 C3 3.75 3 3.75 3 6 C-0.92145098 7.96072549 -5.63369 7.60306273 -10 8 C13.265 8.495 13.265 8.495 37 9 C37 9.66 37 10.32 37 11 C34.81347261 11.33965474 32.62571975 11.67142477 30.4375 12 C29.21933594 12.185625 28.00117188 12.37125 26.74609375 12.5625 C23.12372152 12.98555077 19.64287954 13.07501425 16 13 C16.66 12.67 17.32 12.34 18 12 C18 11.34 18 10.68 18 10 C0.18 10 -17.64 10 -36 10 C-36 9.67 -36 9.34 -36 9 C-28.70562991 7.34891968 -21.51441731 6.49002772 -14.0625 5.9375 C-12.03229537 5.78329111 -10.0023302 5.62588673 -7.97265625 5.46484375 C-7.08843994 5.399021 -6.20422363 5.33319824 -5.29321289 5.26538086 C-2.84145645 5.06108174 -2.84145645 5.06108174 0 4 C0 2.68 0 1.36 0 0 Z " fill="#6B6B6B" transform="translate(214,60)"/>
<path d="M0 0 C5.78591511 -0.10477512 11.29309366 0.00749455 17 1 C17 1.66 17 2.32 17 3 C2.81 3.33 -11.38 3.66 -26 4 C-26 4.33 -26 4.66 -26 5 C-29.63 4.67 -33.26 4.34 -37 4 C-37.33 3.01 -37.66 2.02 -38 1 C-25.46 1 -12.92 1 0 1 C0 0.67 0 0.34 0 0 Z " fill="#6B6B6B" transform="translate(69,50)"/>
<path d="M0 0 C9.9 0 19.8 0 30 0 C30 0.66 30 1.32 30 2 C27.81347261 2.33965474 25.62571975 2.67142477 23.4375 3 C21.61025391 3.2784375 21.61025391 3.2784375 19.74609375 3.5625 C16.12372152 3.98555077 12.64287954 4.07501425 9 4 C9.66 3.67 10.32 3.34 11 3 C11 2.34 11 1.68 11 1 C7.37 1 3.74 1 0 1 C0 0.67 0 0.34 0 0 Z " fill="#636363" transform="translate(221,69)"/>
<path d="M0 0 C-1.98 0.99 -1.98 0.99 -4 2 C-1.525 2.99 -1.525 2.99 1 4 C1 6.31 1 8.62 1 11 C0.67 11 0.34 11 0 11 C-0.33 9.02 -0.66 7.04 -1 5 C-8.425 4.01 -8.425 4.01 -16 3 C-16 2.34 -16 1.68 -16 1 C-14.0852312 0.63571223 -12.16807707 0.28394694 -10.25 -0.0625 C-9.18265625 -0.25972656 -8.1153125 -0.45695312 -7.015625 -0.66015625 C-4.25228095 -0.97156937 -2.59053383 -0.8991416 0 0 Z " fill="#666666" transform="translate(217,34)"/>
<path d="M0 0 C1.98 0.495 1.98 0.495 4 1 C3.979375 2.19625 3.95875 3.3925 3.9375 4.625 C3.93117429 8.18004869 4.30111125 11.50555624 5 15 C3.68 15.33 2.36 15.66 1 16 C0.34 15.01 -0.32 14.02 -1 13 C-0.67 12.34 -0.34 11.68 0 11 C0.07033769 9.12620395 0.0843022 7.24998898 0.0625 5.375 C0.05347656 4.37210938 0.04445313 3.36921875 0.03515625 2.3359375 C0.02355469 1.56507812 0.01195313 0.79421875 0 0 Z " fill="#444444" transform="translate(126,126)"/>
<path d="M0 0 C0.66 0 1.32 0 2 0 C2.36552803 1.41377782 2.71695495 2.83120576 3.0625 4.25 C3.25972656 5.03890625 3.45695313 5.8278125 3.66015625 6.640625 C4.01497267 9.10394822 3.76877544 10.65604132 3 13 C2.34 12.34 1.68 11.68 1 11 C0.34 12.32 -0.32 13.64 -1 15 C-2.20220203 11.46905698 -1.79532349 8.87101018 -1.0625 5.25 C-0.86785156 4.26515625 -0.67320312 3.2803125 -0.47265625 2.265625 C-0.31667969 1.51796875 -0.16070312 0.7703125 0 0 Z " fill="#5C5C5C" transform="translate(219,15)"/>
<path d="M0 0 C0.66 0.33 1.32 0.66 2 1 C0.88200014 2.33920838 -0.24461897 3.67122556 -1.375 5 C-2.31472656 6.11375 -2.31472656 6.11375 -3.2734375 7.25 C-4.12808594 8.11625 -4.12808594 8.11625 -5 9 C-5.66 9 -6.32 9 -7 9 C-7.66 12.96 -8.32 16.92 -9 21 C-9.66 20.67 -10.32 20.34 -11 20 C-9.55988799 12.76431529 -8.44386889 7.17167544 -3 2 C-2.01 1.34 -1.02 0.68 0 0 Z " fill="#636363" transform="translate(111,27)"/>
<path d="M0 0 C0 0.33 0 0.66 0 1 C-6.34823202 3.30844801 -12.29481414 3.19818283 -19 3 C-19 2.34 -19 1.68 -19 1 C-12.61773055 0.17648136 -6.43255401 -0.12086218 0 0 Z " fill="#4B4B4B" transform="translate(30,71)"/>
<path d="M0 0 C1.43739513 -0.02712066 2.87493863 -0.04645067 4.3125 -0.0625 C5.51326172 -0.07990234 5.51326172 -0.07990234 6.73828125 -0.09765625 C9 0 9 0 12 1 C12 1.66 12 2.32 12 3 C8.7 3 5.4 3 2 3 C1.67 3.66 1.34 4.32 1 5 C0.67 3.35 0.34 1.7 0 0 Z " fill="#6B6B6B" transform="translate(75,162)"/>
<path d="M0 0 C3.45925163 1.2491742 6.14693203 2.67527795 9 5 C7.68 5 6.36 5 5 5 C6.32 6.65 7.64 8.3 9 10 C6.50638429 8.79618552 4.31856917 7.54571278 2 6 C1.01 6.495 1.01 6.495 0 7 C0 6.01 0 5.02 0 4 C0.99 4 1.98 4 3 4 C2.01 3.34 1.02 2.68 0 2 C0 1.34 0 0.68 0 0 Z " fill="#5E5E5E" transform="translate(100,114)"/>
<path d="M0 0 C4.95 0.33 9.9 0.66 15 1 C15 1.99 15 2.98 15 4 C11.04 3.67 7.08 3.34 3 3 C2.67 3.66 2.34 4.32 2 5 C1.34 3.35 0.68 1.7 0 0 Z " fill="#5F5F5F" transform="translate(39,138)"/>
<path d="M0 0 C0.66 0 1.32 0 2 0 C2 0.66 2 1.32 2 2 C3.32 2.66 4.64 3.32 6 4 C5.01 4 4.02 4 3 4 C3.33 7.96 3.66 11.92 4 16 C0.64002241 10.96003362 -0.29282455 6.00290323 0 0 Z " fill="#6B6B6B" transform="translate(103,141)"/>
<path d="M0 0 C2.15377564 2.62198774 3.40072174 4.64404172 4 8 C-0.625 11 -0.625 11 -4 11 C-3.67 10.01 -3.34 9.02 -3 8 C-2.34 7.67 -1.68 7.34 -1 7 C-0.59270772 4.67843403 -0.25561323 2.3431213 0 0 Z " fill="#5F5F5F" transform="translate(146,130)"/>
<path d="M0 0 C-0.33 1.98 -0.66 3.96 -1 6 C-1.33 5.01 -1.66 4.02 -2 3 C-5.3 3 -8.6 3 -12 3 C-12 2.34 -12 1.68 -12 1 C-10.37512529 0.83211627 -8.75009558 0.66573213 -7.125 0.5 C-6.22007812 0.4071875 -5.31515625 0.314375 -4.3828125 0.21875 C-2 0 -2 0 0 0 Z " fill="#797979" transform="translate(181,162)"/>
<path d="M0 0 C0.33 0.99 0.66 1.98 1 3 C8.425 3.99 8.425 3.99 16 5 C16 5.66 16 6.32 16 7 C14.02 7 12.04 7 10 7 C10 6.34 10 5.68 10 5 C7.03 5 4.06 5 1 5 C0.67 3.35 0.34 1.7 0 0 Z " fill="#737373" transform="translate(223,30)"/>
<path d="M0 0 C0.99 0.33 1.98 0.66 3 1 C2.34 1 1.68 1 1 1 C0.731875 1.598125 0.46375 2.19625 0.1875 2.8125 C-0.99917406 4.99847854 -2.09599113 6.41332594 -4 8 C-4.66 8 -5.32 8 -6 8 C-6 9.65 -6 11.3 -6 13 C-6.33 13 -6.66 13 -7 13 C-7.4375 10.4375 -7.4375 10.4375 -7 7 C-4.91317274 4.3796981 -2.53313752 2.1841849 0 0 Z " fill="#3C3C3C" transform="translate(112,179)"/>
<path d="M0 0 C3.3 0 6.6 0 10 0 C5.58119757 2.94586829 3.32232661 3.0985616 -2 3 C-1.34 2.67 -0.68 2.34 0 2 C0 1.34 0 0.68 0 0 Z " fill="#3B3B3B" transform="translate(232,70)"/>
<path d="M0 0 C-0.66 2.64 -1.32 5.28 -2 8 C-2.33 8 -2.66 8 -3 8 C-3 6.35 -3 4.7 -3 3 C-4.98 3 -6.96 3 -9 3 C-3.2 0 -3.2 0 0 0 Z " fill="#6B6B6B" transform="translate(252,95)"/>
<path d="M0 0 C0.66 0 1.32 0 2 0 C1.34 3.96 0.68 7.92 0 12 C-0.33 12 -0.66 12 -1 12 C-0.67 9.03 -0.34 6.06 0 3 C-0.66 2.67 -1.32 2.34 -2 2 C-1.34 1.34 -0.68 0.68 0 0 Z " fill="#777777" transform="translate(152,141)"/>
<path d="M0 0 C0.66 0.33 1.32 0.66 2 1 C1.67 1.33 1.34 1.66 1 2 C1.66 2.66 2.32 3.32 3 4 C-0.465 5.485 -0.465 5.485 -4 7 C-4 4 -4 4 -2 1.8125 C-1.34 1.214375 -0.68 0.61625 0 0 Z " fill="#696969" transform="translate(139,123)"/>
<path d="M0 0 C1.32 0.33 2.64 0.66 4 1 C3.67 3.31 3.34 5.62 3 8 C2.34 8 1.68 8 1 8 C0.67 5.36 0.34 2.72 0 0 Z " fill="#808080" transform="translate(126,126)"/>
<path d="M0 0 C-1 1 -1 1 -3.5625 1.0625 C-4.7690625 1.0315625 -4.7690625 1.0315625 -6 1 C-6.33 1.99 -6.66 2.98 -7 4 C-7.99 4.33 -8.98 4.66 -10 5 C-9.01906046 2.54765115 -8.31296172 1.2190732 -6.125 -0.3125 C-3.64990694 -1.1132654 -2.41712366 -0.86325845 0 0 Z " fill="#555555" transform="translate(183,115)"/>
<path d="M0 0 C-0.33 1.65 -0.66 3.3 -1 5 C-1.99 5.33 -2.98 5.66 -4 6 C-4.33 5.01 -4.66 4.02 -5 3 C-2.25 0 -2.25 0 0 0 Z " fill="#303030" transform="translate(157,114)"/>
<path d="M0 0 C0.99 0.33 1.98 0.66 3 1 C3 2.98 3 4.96 3 7 C2.01 6.34 1.02 5.68 0 5 C-0.1875 2.375 -0.1875 2.375 0 0 Z " fill="#343434" transform="translate(218,46)"/>
</svg>
